G04 (created by PCBNEW (2013-jul-07)-stable) date So 13 Dez 2015 15:06:15 CET*
%MOIN*%
G04 Gerber Fmt 3.4, Leading zero omitted, Abs format*
%FSLAX34Y34*%
G01*
G70*
G90*
G04 APERTURE LIST*
%ADD10C,0.00590551*%
%ADD11C,0.015*%
%ADD12C,0.011811*%
G04 APERTURE END LIST*
G54D10*
G54D11*
X74409Y-29724D02*
X73425Y-29724D01*
X77952Y-29330D02*
X78149Y-29330D01*
X75787Y-29330D02*
X76377Y-29330D01*
X73622Y-29330D02*
X74212Y-29330D01*
X71850Y-29330D02*
X72047Y-29330D01*
X72244Y-29724D02*
X71850Y-29724D01*
X76574Y-29724D02*
X75590Y-29724D01*
X78149Y-29724D02*
X77755Y-29724D01*
X76968Y-32874D02*
G75*
G03X76968Y-32874I-1968J0D01*
G74*
G01*
X78149Y-29724D02*
X78149Y-29330D01*
X71850Y-29330D02*
X71850Y-29724D01*
X75000Y-36023D02*
X78149Y-36023D01*
X78149Y-36023D02*
X78149Y-29724D01*
X71850Y-29724D02*
X71850Y-36023D01*
X71850Y-36023D02*
X75000Y-36023D01*
X75590Y-51771D02*
X76574Y-51771D01*
X72047Y-52165D02*
X71850Y-52165D01*
X74212Y-52165D02*
X73622Y-52165D01*
X76377Y-52165D02*
X75787Y-52165D01*
X78149Y-52165D02*
X77952Y-52165D01*
X77755Y-51771D02*
X78149Y-51771D01*
X73425Y-51771D02*
X74409Y-51771D01*
X71850Y-51771D02*
X72244Y-51771D01*
X76968Y-48622D02*
G75*
G03X76968Y-48622I-1968J0D01*
G74*
G01*
X71850Y-51771D02*
X71850Y-52165D01*
X78149Y-52165D02*
X78149Y-51771D01*
X75000Y-45472D02*
X71850Y-45472D01*
X71850Y-45472D02*
X71850Y-51771D01*
X78149Y-51771D02*
X78149Y-45472D01*
X78149Y-45472D02*
X75000Y-45472D01*
X48425Y-25984D02*
X48425Y-26968D01*
X48031Y-22440D02*
X48031Y-22244D01*
X48031Y-24606D02*
X48031Y-24015D01*
X48031Y-26771D02*
X48031Y-26181D01*
X48031Y-28543D02*
X48031Y-28346D01*
X48425Y-28149D02*
X48425Y-28543D01*
X48425Y-23818D02*
X48425Y-24803D01*
X48425Y-22244D02*
X48425Y-22637D01*
X53543Y-25393D02*
G75*
G03X53543Y-25393I-1968J0D01*
G74*
G01*
X48425Y-22244D02*
X48031Y-22244D01*
X48031Y-28543D02*
X48425Y-28543D01*
X54724Y-25393D02*
X54724Y-22244D01*
X54724Y-22244D02*
X48425Y-22244D01*
X48425Y-28543D02*
X54724Y-28543D01*
X54724Y-28543D02*
X54724Y-25393D01*
X67716Y-51771D02*
X68700Y-51771D01*
X64173Y-52165D02*
X63976Y-52165D01*
X66338Y-52165D02*
X65748Y-52165D01*
X68503Y-52165D02*
X67913Y-52165D01*
X70275Y-52165D02*
X70078Y-52165D01*
X69881Y-51771D02*
X70275Y-51771D01*
X65551Y-51771D02*
X66535Y-51771D01*
X63976Y-51771D02*
X64370Y-51771D01*
X69094Y-48622D02*
G75*
G03X69094Y-48622I-1968J0D01*
G74*
G01*
X63976Y-51771D02*
X63976Y-52165D01*
X70275Y-52165D02*
X70275Y-51771D01*
X67125Y-45472D02*
X63976Y-45472D01*
X63976Y-45472D02*
X63976Y-51771D01*
X70275Y-51771D02*
X70275Y-45472D01*
X70275Y-45472D02*
X67125Y-45472D01*
X50787Y-37598D02*
X49803Y-37598D01*
X54330Y-37204D02*
X54527Y-37204D01*
X52165Y-37204D02*
X52755Y-37204D01*
X50000Y-37204D02*
X50590Y-37204D01*
X48228Y-37204D02*
X48425Y-37204D01*
X48622Y-37598D02*
X48228Y-37598D01*
X52952Y-37598D02*
X51968Y-37598D01*
X54527Y-37598D02*
X54133Y-37598D01*
X53346Y-40748D02*
G75*
G03X53346Y-40748I-1968J0D01*
G74*
G01*
X54527Y-37598D02*
X54527Y-37204D01*
X48228Y-37204D02*
X48228Y-37598D01*
X51377Y-43897D02*
X54527Y-43897D01*
X54527Y-43897D02*
X54527Y-37598D01*
X48228Y-37598D02*
X48228Y-43897D01*
X48228Y-43897D02*
X51377Y-43897D01*
X66535Y-29724D02*
X65551Y-29724D01*
X70078Y-29330D02*
X70275Y-29330D01*
X67913Y-29330D02*
X68503Y-29330D01*
X65748Y-29330D02*
X66338Y-29330D01*
X63976Y-29330D02*
X64173Y-29330D01*
X64370Y-29724D02*
X63976Y-29724D01*
X68700Y-29724D02*
X67716Y-29724D01*
X70275Y-29724D02*
X69881Y-29724D01*
X69094Y-32874D02*
G75*
G03X69094Y-32874I-1968J0D01*
G74*
G01*
X70275Y-29724D02*
X70275Y-29330D01*
X63976Y-29330D02*
X63976Y-29724D01*
X67125Y-36023D02*
X70275Y-36023D01*
X70275Y-36023D02*
X70275Y-29724D01*
X63976Y-29724D02*
X63976Y-36023D01*
X63976Y-36023D02*
X67125Y-36023D01*
X58661Y-37598D02*
X57677Y-37598D01*
X62204Y-37204D02*
X62401Y-37204D01*
X60039Y-37204D02*
X60629Y-37204D01*
X57874Y-37204D02*
X58464Y-37204D01*
X56102Y-37204D02*
X56299Y-37204D01*
X56496Y-37598D02*
X56102Y-37598D01*
X60826Y-37598D02*
X59842Y-37598D01*
X62401Y-37598D02*
X62007Y-37598D01*
X61220Y-40748D02*
G75*
G03X61220Y-40748I-1968J0D01*
G74*
G01*
X62401Y-37598D02*
X62401Y-37204D01*
X56102Y-37204D02*
X56102Y-37598D01*
X59251Y-43897D02*
X62401Y-43897D01*
X62401Y-43897D02*
X62401Y-37598D01*
X56102Y-37598D02*
X56102Y-43897D01*
X56102Y-43897D02*
X59251Y-43897D01*
G54D12*
X75785Y-36257D02*
X75585Y-36857D01*
X75385Y-36257D01*
X74842Y-36857D02*
X75042Y-36571D01*
X75185Y-36857D02*
X75185Y-36257D01*
X74957Y-36257D01*
X74900Y-36285D01*
X74871Y-36314D01*
X74842Y-36371D01*
X74842Y-36457D01*
X74871Y-36514D01*
X74900Y-36542D01*
X74957Y-36571D01*
X75185Y-36571D01*
X74642Y-36257D02*
X74271Y-36257D01*
X74471Y-36485D01*
X74385Y-36485D01*
X74328Y-36514D01*
X74300Y-36542D01*
X74271Y-36599D01*
X74271Y-36742D01*
X74300Y-36799D01*
X74328Y-36828D01*
X74385Y-36857D01*
X74557Y-36857D01*
X74614Y-36828D01*
X74642Y-36799D01*
X75785Y-44524D02*
X75585Y-45124D01*
X75385Y-44524D01*
X74842Y-45124D02*
X75042Y-44839D01*
X75185Y-45124D02*
X75185Y-44524D01*
X74957Y-44524D01*
X74900Y-44553D01*
X74871Y-44581D01*
X74842Y-44639D01*
X74842Y-44724D01*
X74871Y-44781D01*
X74900Y-44810D01*
X74957Y-44839D01*
X75185Y-44839D01*
X74300Y-44524D02*
X74585Y-44524D01*
X74614Y-44810D01*
X74585Y-44781D01*
X74528Y-44753D01*
X74385Y-44753D01*
X74328Y-44781D01*
X74300Y-44810D01*
X74271Y-44867D01*
X74271Y-45010D01*
X74300Y-45067D01*
X74328Y-45096D01*
X74385Y-45124D01*
X74528Y-45124D01*
X74585Y-45096D01*
X74614Y-45067D01*
X54957Y-24607D02*
X55557Y-24807D01*
X54957Y-25007D01*
X55557Y-25550D02*
X55272Y-25350D01*
X55557Y-25207D02*
X54957Y-25207D01*
X54957Y-25436D01*
X54986Y-25493D01*
X55014Y-25522D01*
X55072Y-25550D01*
X55157Y-25550D01*
X55214Y-25522D01*
X55243Y-25493D01*
X55272Y-25436D01*
X55272Y-25207D01*
X55557Y-26122D02*
X55557Y-25779D01*
X55557Y-25950D02*
X54957Y-25950D01*
X55043Y-25893D01*
X55100Y-25836D01*
X55129Y-25779D01*
X67911Y-44524D02*
X67711Y-45124D01*
X67511Y-44524D01*
X66968Y-45124D02*
X67168Y-44839D01*
X67311Y-45124D02*
X67311Y-44524D01*
X67083Y-44524D01*
X67025Y-44553D01*
X66997Y-44581D01*
X66968Y-44639D01*
X66968Y-44724D01*
X66997Y-44781D01*
X67025Y-44810D01*
X67083Y-44839D01*
X67311Y-44839D01*
X66454Y-44524D02*
X66568Y-44524D01*
X66625Y-44553D01*
X66654Y-44581D01*
X66711Y-44667D01*
X66740Y-44781D01*
X66740Y-45010D01*
X66711Y-45067D01*
X66683Y-45096D01*
X66625Y-45124D01*
X66511Y-45124D01*
X66454Y-45096D01*
X66425Y-45067D01*
X66397Y-45010D01*
X66397Y-44867D01*
X66425Y-44810D01*
X66454Y-44781D01*
X66511Y-44753D01*
X66625Y-44753D01*
X66683Y-44781D01*
X66711Y-44810D01*
X66740Y-44867D01*
X52163Y-44131D02*
X51963Y-44731D01*
X51763Y-44131D01*
X51220Y-44731D02*
X51420Y-44445D01*
X51563Y-44731D02*
X51563Y-44131D01*
X51335Y-44131D01*
X51277Y-44159D01*
X51249Y-44188D01*
X51220Y-44245D01*
X51220Y-44331D01*
X51249Y-44388D01*
X51277Y-44416D01*
X51335Y-44445D01*
X51563Y-44445D01*
X50992Y-44188D02*
X50963Y-44159D01*
X50906Y-44131D01*
X50763Y-44131D01*
X50706Y-44159D01*
X50677Y-44188D01*
X50649Y-44245D01*
X50649Y-44302D01*
X50677Y-44388D01*
X51020Y-44731D01*
X50649Y-44731D01*
X67911Y-36257D02*
X67711Y-36857D01*
X67511Y-36257D01*
X66968Y-36857D02*
X67168Y-36571D01*
X67311Y-36857D02*
X67311Y-36257D01*
X67083Y-36257D01*
X67025Y-36285D01*
X66997Y-36314D01*
X66968Y-36371D01*
X66968Y-36457D01*
X66997Y-36514D01*
X67025Y-36542D01*
X67083Y-36571D01*
X67311Y-36571D01*
X66454Y-36457D02*
X66454Y-36857D01*
X66597Y-36228D02*
X66740Y-36657D01*
X66368Y-36657D01*
X60037Y-44131D02*
X59837Y-44731D01*
X59637Y-44131D01*
X59094Y-44731D02*
X59294Y-44445D01*
X59437Y-44731D02*
X59437Y-44131D01*
X59209Y-44131D01*
X59151Y-44159D01*
X59123Y-44188D01*
X59094Y-44245D01*
X59094Y-44331D01*
X59123Y-44388D01*
X59151Y-44416D01*
X59209Y-44445D01*
X59437Y-44445D01*
X58894Y-44131D02*
X58494Y-44131D01*
X58751Y-44731D01*
M02*
