M48
;DRILL file {Pcbnew (2013-jul-07)-stable} date So 13 Dez 2015 15:06:08 CET
;FORMAT={-:-/ absolute / metric / decimal}
FMAT,2
METRIC,TZ
T1C0.600
T2C0.635
T3C0.800
T4C1.000
T5C1.500
%
G90
G05
M71
T1
X186.055Y-67.31
X186.055Y-69.85
X187.325Y-68.58
T2
X122.555Y-116.205
X123.825Y-71.12
X123.825Y-76.835
X128.27Y-82.55
X128.27Y-91.44
X129.032Y-96.012
X130.175Y-76.2
X130.81Y-116.205
X132.08Y-82.55
X132.08Y-91.948
X132.08Y-96.012
X133.35Y-82.55
X135.89Y-100.965
X139.7Y-74.93
X141.605Y-87.63
X143.51Y-78.105
X143.51Y-81.915
X143.51Y-96.774
X144.78Y-88.9
X146.05Y-90.932
X148.59Y-123.825
X148.59Y-125.73
X150.495Y-123.825
X151.13Y-128.905
X152.4Y-123.825
X154.305Y-123.825
X154.305Y-125.73
X163.83Y-63.5
X163.83Y-66.04
X163.83Y-68.58
X163.83Y-71.12
X165.735Y-107.315
X167.005Y-107.315
X168.275Y-107.315
X168.91Y-104.775
X171.45Y-95.885
X172.085Y-109.855
X173.99Y-120.015
X175.895Y-80.645
X179.705Y-107.315
X180.975Y-107.315
X182.245Y-107.315
T3
X120.65Y-88.9
X121.285Y-73.66
X121.285Y-76.2
X121.92Y-99.695
X123.19Y-88.9
X124.46Y-99.695
X124.46Y-102.235
X124.46Y-104.775
X124.46Y-107.315
X124.46Y-109.855
X124.46Y-112.395
X124.46Y-114.935
X124.46Y-117.475
X124.46Y-120.015
X125.095Y-67.31
X125.095Y-69.85
X125.095Y-72.39
X125.095Y-74.93
X125.73Y-78.105
X126.365Y-59.055
X126.365Y-61.595
X126.439Y-86.36
X126.444Y-81.28
X126.444Y-83.82
X126.444Y-88.9
X128.191Y-99.695
X128.191Y-102.235
X128.191Y-104.775
X128.191Y-107.315
X128.191Y-109.855
X128.191Y-112.395
X128.222Y-114.935
X128.222Y-117.475
X128.222Y-120.015
X128.27Y-78.105
X128.349Y-124.46
X128.349Y-127.
X128.349Y-129.54
X128.349Y-132.08
X132.715Y-67.31
X132.715Y-69.85
X132.715Y-72.39
X132.715Y-74.93
X135.176Y-67.31
X135.176Y-69.85
X135.176Y-72.39
X135.176Y-74.93
X135.334Y-59.055
X135.334Y-61.595
X136.599Y-86.36
X136.604Y-81.28
X136.604Y-83.82
X136.604Y-88.9
X138.351Y-99.695
X138.351Y-102.235
X138.351Y-104.775
X138.351Y-107.315
X138.351Y-109.855
X138.351Y-112.395
X138.382Y-114.935
X138.382Y-117.475
X138.382Y-120.015
X138.509Y-124.46
X138.509Y-127.
X138.509Y-129.54
X138.509Y-132.08
X139.065Y-77.47
X139.065Y-81.28
X139.065Y-83.82
X139.065Y-86.36
X139.065Y-88.9
X139.065Y-95.25
X141.605Y-77.47
X141.605Y-95.25
X142.24Y-99.695
X142.24Y-102.235
X142.24Y-104.775
X142.24Y-107.315
X142.24Y-109.855
X142.24Y-112.395
X142.24Y-114.935
X142.24Y-117.475
X143.51Y-127.635
X143.51Y-130.175
X144.145Y-64.135
X145.336Y-67.31
X145.336Y-69.85
X145.336Y-72.39
X145.336Y-74.93
X145.494Y-59.055
X145.494Y-61.595
X146.05Y-99.695
X146.05Y-102.235
X146.05Y-104.775
X146.05Y-107.315
X146.05Y-109.855
X146.05Y-112.395
X146.05Y-114.935
X146.05Y-117.475
X146.685Y-64.135
X146.685Y-81.28
X146.685Y-83.82
X146.685Y-86.36
X146.685Y-88.9
X148.59Y-59.055
X148.59Y-68.58
X149.146Y-83.82
X149.146Y-86.36
X149.146Y-88.9
X149.225Y-74.93
X149.225Y-77.47
X149.225Y-81.28
X151.13Y-59.055
X151.13Y-68.58
X151.765Y-81.28
X153.67Y-59.055
X153.67Y-99.695
X153.67Y-102.235
X153.67Y-104.775
X153.67Y-107.315
X153.67Y-109.855
X153.67Y-112.395
X153.67Y-114.935
X153.67Y-117.475
X154.305Y-68.58
X154.305Y-74.93
X154.305Y-77.47
X156.21Y-59.055
X156.845Y-68.58
X156.845Y-81.28
X156.845Y-97.711
X156.845Y-107.871
X156.845Y-117.475
X156.845Y-123.19
X156.845Y-131.445
X158.115Y-110.49
X158.115Y-113.03
X159.306Y-83.82
X159.306Y-86.36
X159.306Y-88.9
X159.385Y-81.28
X159.385Y-117.475
X159.385Y-123.19
X159.385Y-131.445
X160.02Y-98.425
X160.02Y-100.965
X160.02Y-104.775
X160.02Y-107.315
X160.094Y-66.04
X160.099Y-63.5
X160.099Y-68.58
X160.5Y-57.73
X160.5Y-60.27
X164.465Y-79.375
X164.465Y-81.915
X164.465Y-84.455
X164.465Y-86.995
X164.465Y-89.535
X164.465Y-92.075
X164.465Y-94.615
X164.465Y-97.155
X164.465Y-109.855
X164.465Y-112.395
X164.465Y-114.935
X164.465Y-117.475
X164.465Y-120.015
X164.465Y-122.555
X164.465Y-125.095
X164.465Y-127.635
X167.64Y-103.505
X168.196Y-79.375
X168.196Y-81.915
X168.196Y-84.455
X168.196Y-86.995
X168.196Y-92.075
X168.196Y-112.395
X168.196Y-114.935
X168.196Y-117.475
X168.196Y-120.015
X168.196Y-122.555
X168.201Y-89.535
X168.201Y-94.615
X168.201Y-97.155
X168.201Y-109.855
X168.201Y-125.095
X168.201Y-127.635
X170.18Y-59.055
X170.18Y-103.505
X170.254Y-66.04
X170.259Y-63.5
X170.259Y-68.58
X172.641Y-68.58
X172.646Y-66.04
X172.72Y-59.055
X175.895Y-102.235
X175.895Y-104.775
X176.451Y-59.055
X176.456Y-61.595
X178.356Y-79.375
X178.356Y-81.915
X178.356Y-84.455
X178.356Y-86.995
X178.356Y-92.075
X178.356Y-112.395
X178.356Y-114.935
X178.356Y-117.475
X178.356Y-120.015
X178.356Y-122.555
X178.361Y-89.535
X178.361Y-94.615
X178.361Y-97.155
X178.361Y-109.855
X178.361Y-125.095
X178.361Y-127.635
X180.34Y-73.66
X180.34Y-76.2
X180.34Y-130.81
X180.34Y-133.35
X182.207Y-114.922
X182.207Y-117.462
X182.207Y-120.002
X182.207Y-122.542
X182.207Y-125.082
X182.207Y-127.622
X182.245Y-79.375
X182.245Y-81.915
X182.245Y-84.455
X182.245Y-86.995
X182.245Y-89.535
X182.245Y-92.075
X182.245Y-94.615
X182.245Y-97.155
X182.245Y-109.855
X182.245Y-112.395
X182.801Y-68.58
X182.806Y-66.04
X182.88Y-102.235
X182.88Y-104.775
X186.055Y-79.375
X186.055Y-81.915
X186.055Y-84.455
X186.055Y-86.995
X186.055Y-89.535
X186.055Y-92.075
X186.055Y-94.615
X186.055Y-97.155
X186.055Y-109.855
X186.055Y-112.395
X186.055Y-114.935
X186.055Y-117.475
X186.055Y-120.015
X186.055Y-122.555
X186.055Y-125.095
X186.055Y-127.635
X186.611Y-59.055
X186.616Y-61.595
X189.151Y-57.785
X189.156Y-60.325
X189.865Y-64.77
X190.5Y-103.505
X192.405Y-64.77
X193.04Y-103.505
X193.675Y-69.215
X193.675Y-79.375
X193.675Y-81.915
X193.675Y-84.455
X193.675Y-86.995
X193.675Y-89.535
X193.675Y-92.075
X193.675Y-94.615
X193.675Y-97.155
X193.675Y-109.855
X193.675Y-112.395
X193.675Y-114.935
X193.675Y-117.475
X193.675Y-120.015
X193.675Y-122.555
X193.675Y-125.095
X193.675Y-127.635
X196.215Y-69.215
X196.85Y-78.026
X196.85Y-88.186
X196.85Y-97.155
X196.85Y-103.505
X196.85Y-107.871
X196.85Y-118.031
X196.85Y-127.635
X198.12Y-90.805
X198.12Y-93.345
X198.755Y-121.285
X198.755Y-123.825
X199.311Y-57.785
X199.316Y-60.325
X199.39Y-97.155
X199.39Y-103.505
X199.39Y-127.635
X200.025Y-78.74
X200.025Y-81.28
X200.025Y-85.09
X200.025Y-87.63
X200.025Y-108.585
X200.025Y-111.125
X200.025Y-114.935
X200.025Y-117.475
T4
X121.92Y-79.375
X121.92Y-81.915
X121.92Y-84.455
X124.46Y-124.46
X124.46Y-127.
X124.46Y-129.54
X131.445Y-59.055
X131.445Y-61.595
X151.13Y-63.5
X153.67Y-63.5
X156.21Y-63.5
X159.385Y-73.025
X159.385Y-75.565
X159.385Y-78.105
X199.39Y-64.135
X199.39Y-66.675
X199.39Y-69.215
T5
X121.5Y-59.
X121.5Y-64.5
X121.5Y-70.
X125.Y-94.
X130.5Y-94.
X136.Y-94.
X145.Y-94.
X150.5Y-94.
X156.Y-94.
X165.Y-74.
X165.Y-133.
X170.5Y-74.
X170.5Y-133.
X176.Y-74.
X176.Y-133.
X185.Y-74.
X185.Y-133.
X190.5Y-74.
X190.5Y-133.
X196.Y-74.
X196.Y-133.
T0
M30
