G04 (created by PCBNEW (2013-jul-07)-stable) date So 13 Dez 2015 15:06:15 CET*
%MOIN*%
G04 Gerber Fmt 3.4, Leading zero omitted, Abs format*
%FSLAX34Y34*%
G01*
G70*
G90*
G04 APERTURE LIST*
%ADD10C,0.00590551*%
%ADD11C,0.0787402*%
%ADD12C,0.11811*%
%ADD13C,0.0629921*%
%ADD14R,0.0787402X0.0787402*%
%ADD15R,0.0629921X0.0629921*%
%ADD16C,0.0590551*%
%ADD17R,0.0590551X0.0590551*%
%ADD18C,0.0472441*%
G04 APERTURE END LIST*
G54D10*
G54D11*
X51574Y-25393D03*
G54D12*
X72834Y-29133D03*
X75000Y-29133D03*
X77165Y-29133D03*
X77165Y-52362D03*
X75000Y-52362D03*
X72834Y-52362D03*
X47834Y-27559D03*
X47834Y-25393D03*
X47834Y-23228D03*
X69291Y-52362D03*
X67125Y-52362D03*
X64960Y-52362D03*
X49212Y-37007D03*
X51377Y-37007D03*
X53543Y-37007D03*
X64960Y-29133D03*
X67125Y-29133D03*
X69291Y-29133D03*
X57086Y-37007D03*
X59251Y-37007D03*
X61417Y-37007D03*
G54D13*
X63031Y-25000D03*
X67031Y-25000D03*
X74471Y-23750D03*
X78471Y-23750D03*
X73469Y-23250D03*
X69469Y-23250D03*
X61750Y-42469D03*
X61750Y-38469D03*
X71969Y-27000D03*
X67969Y-27000D03*
X50531Y-50000D03*
X54531Y-50000D03*
X54469Y-40250D03*
X50469Y-40250D03*
X50531Y-51000D03*
X54531Y-51000D03*
X54469Y-39250D03*
X50469Y-39250D03*
X78469Y-22750D03*
X74469Y-22750D03*
X66221Y-49250D03*
X70221Y-49250D03*
X50481Y-47250D03*
X54481Y-47250D03*
X67971Y-26000D03*
X71971Y-26000D03*
X54469Y-44250D03*
X50469Y-44250D03*
X53281Y-23250D03*
X57281Y-23250D03*
X63031Y-27000D03*
X67031Y-27000D03*
X53281Y-24250D03*
X57281Y-24250D03*
X67029Y-26000D03*
X63029Y-26000D03*
X57219Y-26500D03*
X53219Y-26500D03*
X57219Y-29500D03*
X53219Y-29500D03*
X57219Y-27500D03*
X53219Y-27500D03*
X57219Y-28500D03*
X53219Y-28500D03*
X49781Y-32000D03*
X53781Y-32000D03*
X62719Y-33000D03*
X58719Y-33000D03*
X62719Y-35000D03*
X58719Y-35000D03*
X62719Y-34000D03*
X58719Y-34000D03*
X77500Y-46469D03*
X77500Y-42469D03*
X49781Y-35000D03*
X53781Y-35000D03*
X53779Y-34000D03*
X49779Y-34000D03*
X49781Y-33000D03*
X53781Y-33000D03*
X66221Y-35250D03*
X70221Y-35250D03*
X70219Y-32250D03*
X66219Y-32250D03*
X70219Y-31250D03*
X66219Y-31250D03*
X70219Y-33250D03*
X66219Y-33250D03*
X69471Y-24250D03*
X73471Y-24250D03*
X70219Y-36250D03*
X66219Y-36250D03*
X70219Y-34250D03*
X66219Y-34250D03*
X66221Y-37250D03*
X70221Y-37250D03*
X66221Y-38250D03*
X70221Y-38250D03*
X77500Y-34719D03*
X77500Y-30719D03*
X66221Y-43250D03*
X70221Y-43250D03*
X70219Y-46250D03*
X66219Y-46250D03*
X50481Y-45250D03*
X54481Y-45250D03*
X70219Y-45250D03*
X66219Y-45250D03*
X54469Y-43250D03*
X50469Y-43250D03*
X54469Y-41250D03*
X50469Y-41250D03*
X54469Y-42250D03*
X50469Y-42250D03*
X50481Y-46250D03*
X54481Y-46250D03*
X70219Y-44250D03*
X66219Y-44250D03*
X66221Y-50250D03*
X70221Y-50250D03*
X70219Y-48250D03*
X66219Y-48250D03*
X70219Y-47250D03*
X66219Y-47250D03*
G54D14*
X49000Y-49000D03*
G54D11*
X49000Y-50000D03*
X49000Y-51000D03*
G54D14*
X48000Y-33250D03*
G54D11*
X48000Y-32250D03*
X48000Y-31250D03*
G54D14*
X78500Y-25250D03*
G54D11*
X78500Y-26250D03*
X78500Y-27250D03*
G54D14*
X62750Y-28750D03*
G54D11*
X62750Y-29750D03*
X62750Y-30750D03*
G54D14*
X61500Y-25000D03*
G54D11*
X60500Y-25000D03*
X59500Y-25000D03*
G54D14*
X51750Y-23250D03*
G54D11*
X51750Y-24250D03*
G54D15*
X52250Y-29500D03*
G54D13*
X52250Y-28500D03*
X52250Y-27500D03*
X52250Y-26500D03*
X49250Y-26500D03*
X49250Y-27500D03*
X49250Y-28500D03*
X49250Y-29500D03*
G54D15*
X54750Y-32000D03*
G54D13*
X54750Y-33000D03*
X54750Y-34000D03*
X54750Y-35000D03*
X57750Y-35000D03*
X57750Y-34000D03*
X57750Y-33000D03*
X57750Y-32000D03*
G54D15*
X76250Y-38250D03*
G54D13*
X76250Y-37250D03*
X76250Y-36250D03*
X76250Y-35250D03*
X76250Y-34250D03*
X76250Y-33250D03*
X76250Y-32250D03*
X76250Y-31250D03*
X73250Y-31250D03*
X73250Y-32250D03*
X73250Y-33250D03*
X73250Y-34250D03*
X73250Y-35250D03*
X73250Y-36250D03*
X73250Y-37250D03*
X73250Y-38250D03*
G54D15*
X76250Y-50250D03*
G54D13*
X76250Y-49250D03*
X76250Y-48250D03*
X76250Y-47250D03*
X76250Y-46250D03*
X76250Y-45250D03*
X76250Y-44250D03*
X76250Y-43250D03*
X73250Y-43250D03*
X73250Y-44250D03*
X73250Y-45250D03*
X73250Y-46250D03*
X73250Y-47250D03*
X73250Y-48250D03*
X73250Y-49250D03*
X73250Y-50250D03*
G54D15*
X60500Y-46250D03*
G54D13*
X60500Y-45250D03*
X60500Y-44250D03*
X60500Y-43250D03*
X60500Y-42250D03*
X60500Y-41250D03*
X60500Y-40250D03*
X60500Y-39250D03*
X57500Y-39250D03*
X57500Y-40250D03*
X57500Y-41250D03*
X57500Y-42250D03*
X57500Y-43250D03*
X57500Y-44250D03*
X57500Y-45250D03*
X57500Y-46250D03*
X50531Y-52000D03*
X54531Y-52000D03*
X50531Y-49000D03*
X54531Y-49000D03*
G54D16*
X68000Y-23250D03*
G54D17*
X67000Y-23250D03*
G54D16*
X75000Y-40750D03*
G54D17*
X76000Y-40750D03*
G54D16*
X78000Y-35750D03*
G54D17*
X78000Y-36750D03*
G54D16*
X63188Y-23728D03*
G54D17*
X63188Y-22728D03*
G54D16*
X62750Y-51750D03*
G54D17*
X61750Y-51750D03*
G54D16*
X47500Y-35000D03*
G54D17*
X48500Y-35000D03*
G54D16*
X78250Y-47750D03*
G54D17*
X78250Y-48750D03*
G54D16*
X56500Y-51250D03*
G54D17*
X56500Y-50250D03*
G54D16*
X62250Y-43500D03*
G54D17*
X62250Y-44500D03*
G54D16*
X62750Y-48500D03*
G54D17*
X61750Y-48500D03*
G54D16*
X78500Y-40750D03*
G54D17*
X77500Y-40750D03*
G54D16*
X49750Y-24250D03*
X49750Y-23250D03*
X69250Y-40250D03*
X69250Y-41250D03*
X71000Y-29000D03*
X71000Y-30000D03*
X47750Y-29000D03*
X47750Y-30000D03*
X71000Y-52500D03*
X71000Y-51500D03*
X55750Y-37500D03*
X54750Y-37500D03*
X60750Y-29500D03*
X60750Y-30500D03*
X67000Y-40750D03*
X66000Y-40750D03*
X72000Y-40250D03*
X72000Y-41250D03*
G54D13*
X78500Y-38250D03*
X77500Y-38250D03*
X78750Y-45250D03*
X78750Y-46250D03*
X78750Y-43750D03*
X78750Y-42750D03*
X64750Y-34250D03*
X64750Y-33250D03*
X78750Y-33500D03*
X78750Y-34500D03*
X78500Y-50250D03*
X77500Y-50250D03*
X64750Y-43250D03*
X64750Y-44250D03*
X78750Y-31000D03*
X78750Y-32000D03*
X71750Y-31250D03*
X71750Y-32250D03*
X64750Y-37250D03*
X64750Y-38250D03*
X64750Y-32250D03*
X64750Y-31250D03*
X71750Y-38250D03*
X71750Y-37250D03*
X58750Y-32000D03*
X59750Y-32000D03*
X71750Y-36250D03*
X71750Y-35250D03*
X71750Y-33250D03*
X71750Y-34250D03*
X58750Y-30500D03*
X58750Y-29500D03*
X49000Y-44250D03*
X49000Y-45250D03*
X49500Y-30750D03*
X50500Y-30750D03*
X55750Y-30500D03*
X54750Y-30500D03*
X62750Y-32000D03*
X61750Y-32000D03*
X56750Y-25250D03*
X57750Y-25250D03*
X59500Y-23250D03*
X58500Y-23250D03*
X60500Y-23250D03*
X61500Y-23250D03*
X62750Y-46250D03*
X61750Y-46250D03*
X63000Y-41250D03*
X63000Y-42250D03*
X63000Y-38750D03*
X63000Y-39750D03*
X49000Y-40250D03*
X49000Y-41250D03*
X49000Y-47250D03*
X49000Y-46250D03*
X64750Y-36250D03*
X64750Y-35250D03*
X64750Y-47250D03*
X64750Y-48250D03*
X71750Y-43250D03*
X71750Y-44250D03*
X71735Y-45245D03*
X71735Y-46245D03*
X71735Y-48245D03*
X71735Y-47245D03*
X71735Y-50245D03*
X71735Y-49245D03*
X48000Y-39250D03*
X49000Y-39250D03*
X49000Y-43250D03*
X49000Y-42250D03*
X56000Y-46250D03*
X56000Y-45250D03*
X56000Y-44250D03*
X56000Y-43250D03*
X64750Y-46250D03*
X64750Y-45250D03*
X56000Y-41250D03*
X56000Y-42250D03*
X56000Y-39250D03*
X56000Y-40250D03*
X64750Y-49250D03*
X64750Y-50250D03*
G54D11*
X67125Y-48622D03*
X75000Y-48622D03*
X51377Y-40748D03*
X59251Y-40748D03*
X75000Y-32874D03*
X67125Y-32874D03*
G54D18*
X73750Y-27000D03*
X73250Y-27500D03*
X73250Y-26500D03*
G54D16*
X60750Y-27000D03*
X61750Y-27000D03*
X58500Y-27000D03*
X59500Y-27000D03*
X77250Y-27250D03*
X76250Y-27250D03*
X75750Y-25500D03*
X74750Y-25500D03*
M02*
